<svg width="52" height="48" viewBox="0 0 52 48" fill="none" xmlns="http://www.w3.org/2000/svg">
<rect width="52" height="48" rx="10" fill="#FFDED4"/>
<g clip-path="url(#clip0_1390_536)">
<path d="M25.9998 38.7698C17.8557 38.7698 11.23 32.1441 11.23 24C11.23 15.8559 17.8557 9.23015 25.9998 9.23015C34.1439 9.23015 40.7697 15.8559 40.7697 24C40.7697 32.1441 34.1439 38.7698 25.9998 38.7698ZM26.328 29.3034C28.4542 29.3375 30.5155 29.7005 32.3893 30.353C32.8563 28.534 33.1291 26.4908 33.1543 24.3282H26.328V29.3034ZM26.328 29.9598V38.097C28.8484 37.8715 31.0321 35.0636 32.2156 30.9871C30.4006 30.3497 28.3975 29.9939 26.328 29.9598ZM25.6716 29.9598C23.6019 29.9939 21.5991 30.3497 19.7837 30.9874C20.9672 35.0636 23.1509 37.8715 25.6716 38.097V29.9598ZM25.6716 29.3034V24.3282H18.8453C18.8706 26.4908 19.1433 28.534 19.6104 30.353C21.4842 29.7005 23.5454 29.3375 25.6716 29.3034ZM18.1889 24.3282H11.8946C11.9688 27.5507 13.1261 30.5089 15.0186 32.8521C16.1707 31.9219 17.5196 31.1545 19.0045 30.5749C18.5053 28.686 18.2151 26.568 18.1889 24.3282ZM18.1889 23.6718C18.2148 21.432 18.5053 19.314 19.0045 17.4248C17.52 16.8452 16.1707 16.0778 15.0189 15.1476C13.1261 17.4911 11.9688 20.4493 11.8946 23.6718H18.1889ZM18.8453 23.6718H25.6716V18.697C23.5454 18.6628 21.4842 18.2995 19.6104 17.647C19.1433 19.466 18.8706 21.5091 18.8453 23.6718ZM25.6716 18.0405V9.903C23.1509 10.1285 20.9672 12.9364 19.7837 17.0129C21.5991 17.6503 23.6022 18.0061 25.6716 18.0405ZM26.328 18.0405C28.3975 18.0064 30.4006 17.6506 32.2156 17.0132C31.0321 12.9364 28.8488 10.1285 26.328 9.903V18.0405ZM26.328 18.697V23.6718H33.1543C33.1291 21.5091 32.8563 19.466 32.3893 17.647C30.5155 18.2995 28.4542 18.6628 26.328 18.697ZM33.8104 23.6718H40.105C40.0308 20.4493 38.8735 17.4911 36.9807 15.1476C35.8287 16.0778 34.4797 16.8455 32.9948 17.4248C33.494 19.3143 33.7845 21.432 33.8104 23.6718ZM33.8104 24.3282C33.7845 26.568 33.494 28.6856 32.9948 30.5749C34.4797 31.1545 35.8287 31.9219 36.9807 32.8521C38.8735 30.5086 40.0305 27.5503 40.1047 24.3282H33.8104ZM36.5563 33.3529C35.4745 32.4815 34.2089 31.7604 32.8166 31.2103C31.9143 34.2457 30.462 36.6213 28.7158 37.8485C31.8086 37.243 34.5417 35.6242 36.5563 33.3529ZM23.2838 37.8485C21.5377 36.6213 20.0853 34.2457 19.183 31.2106C17.7907 31.7607 16.5251 32.4818 15.4433 33.3532C17.4576 35.6242 20.1907 37.243 23.2838 37.8485ZM15.443 14.6471C16.5248 15.5185 17.7901 16.2396 19.1827 16.7897C20.085 13.7546 21.5374 11.379 23.2835 10.1518C20.1907 10.757 17.4576 12.3758 15.443 14.6471ZM28.7158 10.1515C30.462 11.3787 31.9143 13.7543 32.8166 16.7897C34.2092 16.2396 35.4745 15.5185 36.5563 14.6471C34.5417 12.3758 31.809 10.757 28.7158 10.1515Z" fill="black"/>
</g>
<defs>
<clipPath id="clip0_1390_536">
<rect width="30" height="30" fill="white" transform="matrix(1 0 0 -1 11 39)"/>
</clipPath>
</defs>
</svg>
