<svg width="244" height="33" viewBox="0 0 244 33" fill="none" xmlns="http://www.w3.org/2000/svg">
<path d="M11.348 0.512C16.076 0.512 19.592 1.592 21.896 3.752C24.2 5.888 25.352 8.96 25.352 12.968C25.352 15.584 24.788 17.876 23.66 19.844C22.532 21.788 20.888 23.3 18.728 24.38C16.592 25.46 14.024 26 11.024 26C10.448 26 9.62 25.988 8.54 25.964C7.484 25.916 6.56 25.892 5.768 25.892C4.712 25.892 3.668 25.904 2.636 25.928C1.628 25.928 0.824 25.952 0.224 26V25.28C0.992 25.232 1.568 25.136 1.952 24.992C2.336 24.848 2.588 24.56 2.708 24.128C2.852 23.696 2.924 23.048 2.924 22.184V4.328C2.924 3.44 2.852 2.792 2.708 2.384C2.588 1.952 2.324 1.664 1.916 1.52C1.532 1.352 0.968 1.256 0.224 1.232V0.512C0.824 0.536 1.628 0.571999 2.636 0.619998C3.668 0.643998 4.688 0.643998 5.696 0.619998C6.56 0.595999 7.532 0.571999 8.612 0.547999C9.716 0.524 10.628 0.512 11.348 0.512ZM11.312 1.16C10.208 1.16 9.488 1.364 9.152 1.772C8.816 2.18 8.648 3.008 8.648 4.256V22.256C8.648 23.504 8.816 24.332 9.152 24.74C9.512 25.148 10.244 25.352 11.348 25.352C13.364 25.352 14.948 24.884 16.1 23.948C17.276 22.988 18.116 21.596 18.62 19.772C19.124 17.948 19.376 15.728 19.376 13.112C19.376 9.08 18.752 6.08 17.504 4.112C16.256 2.144 14.192 1.16 11.312 1.16ZM40.5572 6.884C41.3252 6.884 41.9492 7.052 42.4292 7.388C42.9092 7.7 43.2572 8.108 43.4732 8.612C43.7132 9.116 43.8332 9.644 43.8332 10.196C43.8332 11.084 43.5692 11.816 43.0412 12.392C42.5372 12.944 41.8652 13.22 41.0252 13.22C40.1852 13.22 39.5252 13.016 39.0452 12.608C38.5892 12.176 38.3612 11.612 38.3612 10.916C38.3612 10.244 38.5052 9.692 38.7932 9.26C39.1052 8.804 39.4892 8.42 39.9452 8.108C39.6092 8.012 39.2732 8.024 38.9372 8.144C38.3132 8.24 37.7492 8.54 37.2452 9.044C36.7652 9.524 36.3812 10.1 36.0932 10.772C35.8052 11.444 35.6612 12.104 35.6612 12.752V22.292C35.6612 23.444 35.9372 24.224 36.4892 24.632C37.0652 25.04 37.9172 25.244 39.0452 25.244V26C38.4932 25.976 37.6892 25.952 36.6332 25.928C35.5772 25.88 34.4732 25.856 33.3212 25.856C32.3612 25.856 31.3892 25.88 30.4052 25.928C29.4212 25.952 28.6772 25.976 28.1732 26V25.244C29.0132 25.244 29.6012 25.064 29.9372 24.704C30.2972 24.344 30.4772 23.66 30.4772 22.652V11.312C30.4772 10.232 30.3092 9.44 29.9732 8.936C29.6612 8.408 29.0612 8.144 28.1732 8.144V7.388C28.9412 7.46 29.6852 7.496 30.4052 7.496C31.4132 7.496 32.3492 7.46 33.2132 7.388C34.1012 7.292 34.9172 7.16 35.6612 6.992V10.34C35.9492 9.692 36.3332 9.104 36.8132 8.576C37.2932 8.048 37.8452 7.64 38.4692 7.352C39.0932 7.04 39.7892 6.884 40.5572 6.884ZM54.1337 6.884C56.2457 6.884 57.9017 7.508 59.1017 8.756C60.3017 10.004 60.9017 12.044 60.9017 14.876H49.0577L48.9857 14.192H56.3657C56.3897 13.016 56.3177 11.936 56.1497 10.952C55.9817 9.944 55.7177 9.14 55.3577 8.54C54.9977 7.94 54.5177 7.64 53.9177 7.64C53.0777 7.64 52.3577 8.168 51.7577 9.224C51.1817 10.28 50.8337 12.032 50.7137 14.48L50.8217 14.696C50.7977 14.984 50.7737 15.284 50.7497 15.596C50.7497 15.908 50.7497 16.232 50.7497 16.568C50.7497 18.224 50.9777 19.568 51.4337 20.6C51.9137 21.632 52.5137 22.388 53.2337 22.868C53.9537 23.324 54.6857 23.552 55.4297 23.552C56.1497 23.552 56.9297 23.372 57.7697 23.012C58.6337 22.652 59.4377 21.872 60.1817 20.672L60.8297 20.888C60.5417 21.8 60.0857 22.688 59.4617 23.552C58.8377 24.416 58.0457 25.124 57.0857 25.676C56.1257 26.228 54.9737 26.504 53.6297 26.504C51.9977 26.504 50.5577 26.156 49.3097 25.46C48.0617 24.764 47.0777 23.708 46.3577 22.292C45.6617 20.876 45.3137 19.076 45.3137 16.892C45.3137 14.66 45.6857 12.8 46.4297 11.312C47.1977 9.824 48.2417 8.72 49.5617 8C50.9057 7.256 52.4297 6.884 54.1337 6.884ZM68.0983 26.252C66.4903 26.252 65.3263 25.832 64.6063 24.992C63.8863 24.152 63.5263 23.132 63.5263 21.932C63.5263 20.9 63.7543 20.06 64.2103 19.412C64.6903 18.764 65.3023 18.236 66.0463 17.828C66.7903 17.396 67.5703 17.048 68.3863 16.784C69.2263 16.496 70.0183 16.22 70.7623 15.956C71.5303 15.668 72.1423 15.344 72.5983 14.984C73.0783 14.624 73.3183 14.168 73.3183 13.616V10.808C73.3183 10.184 73.2103 9.632 72.9943 9.152C72.8023 8.648 72.4903 8.264 72.0583 8C71.6503 7.736 71.1103 7.604 70.4383 7.604C69.9583 7.604 69.4783 7.676 68.9983 7.82C68.5183 7.94 68.1223 8.156 67.8103 8.468C68.4823 8.708 68.9983 9.08 69.3583 9.584C69.7423 10.064 69.9343 10.616 69.9343 11.24C69.9343 12.056 69.6463 12.704 69.0703 13.184C68.5183 13.664 67.8583 13.904 67.0903 13.904C66.2263 13.904 65.5663 13.64 65.1103 13.112C64.6783 12.56 64.4623 11.9 64.4623 11.132C64.4623 10.436 64.6303 9.86 64.9663 9.404C65.3263 8.948 65.8183 8.516 66.4423 8.108C67.1143 7.724 67.9183 7.424 68.8543 7.208C69.8143 6.992 70.8463 6.884 71.9503 6.884C73.0543 6.884 74.0503 7.004 74.9383 7.244C75.8263 7.46 76.5703 7.868 77.1703 8.468C77.7223 9.02 78.0823 9.704 78.2503 10.52C78.4183 11.312 78.5023 12.32 78.5023 13.544V23.336C78.5023 23.912 78.5623 24.32 78.6823 24.56C78.8023 24.8 79.0063 24.92 79.2943 24.92C79.5343 24.92 79.7623 24.86 79.9783 24.74C80.1943 24.62 80.3983 24.476 80.5903 24.308L80.9503 24.92C80.4463 25.352 79.8583 25.688 79.1863 25.928C78.5383 26.144 77.8063 26.252 76.9903 26.252C75.5503 26.252 74.5903 25.964 74.1103 25.388C73.6543 24.788 73.4143 24.104 73.3903 23.336C72.7903 24.32 72.0463 25.052 71.1583 25.532C70.2943 26.012 69.2743 26.252 68.0983 26.252ZM70.8703 23.948C71.3263 23.948 71.7463 23.84 72.1303 23.624C72.5383 23.408 72.9343 23.024 73.3183 22.472V15.092C73.0303 15.572 72.6223 15.98 72.0943 16.316C71.5903 16.628 71.0623 16.976 70.5103 17.36C69.9823 17.72 69.5383 18.188 69.1783 18.764C68.8183 19.34 68.6383 20.108 68.6383 21.068C68.6383 22.1 68.8543 22.844 69.2863 23.3C69.7183 23.732 70.2463 23.948 70.8703 23.948ZM95.4072 6.884C96.4152 6.884 97.2312 7.016 97.8552 7.28C98.4792 7.52 98.9832 7.856 99.3672 8.288C99.7512 8.744 100.027 9.344 100.195 10.088C100.363 10.808 100.447 11.768 100.447 12.968V22.652C100.447 23.66 100.603 24.344 100.915 24.704C101.227 25.064 101.767 25.244 102.535 25.244V26C102.103 25.976 101.443 25.952 100.555 25.928C99.6912 25.88 98.8392 25.856 97.9992 25.856C97.1352 25.856 96.2832 25.88 95.4432 25.928C94.6032 25.952 93.9672 25.976 93.5352 26V25.244C94.1832 25.244 94.6272 25.064 94.8672 24.704C95.1312 24.344 95.2632 23.66 95.2632 22.652V11.456C95.2632 10.856 95.2152 10.34 95.1192 9.908C95.0232 9.452 94.8312 9.104 94.5432 8.864C94.2792 8.6 93.8712 8.468 93.3192 8.468C92.6952 8.468 92.1192 8.648 91.5912 9.008C91.0632 9.368 90.6312 9.872 90.2952 10.52C89.9832 11.144 89.8272 11.852 89.8272 12.644V22.652C89.8272 23.66 89.9592 24.344 90.2232 24.704C90.4872 25.064 90.9312 25.244 91.5552 25.244V26C91.1712 25.976 90.5712 25.952 89.7552 25.928C88.9632 25.88 88.1472 25.856 87.3072 25.856C86.3952 25.856 85.4592 25.88 84.4992 25.928C83.5392 25.952 82.8192 25.976 82.3392 26V25.244C83.1792 25.244 83.7672 25.064 84.1032 24.704C84.4632 24.344 84.6432 23.66 84.6432 22.652V11.312C84.6432 10.232 84.4752 9.44 84.1392 8.936C83.8272 8.408 83.2272 8.144 82.3392 8.144V7.388C83.1072 7.46 83.8512 7.496 84.5712 7.496C85.5792 7.496 86.5152 7.46 87.3792 7.388C88.2672 7.292 89.0832 7.16 89.8272 6.992V10.232C90.4032 9.032 91.1832 8.18 92.1672 7.676C93.1512 7.148 94.2312 6.884 95.4072 6.884ZM106.243 6.884C107.251 6.884 108.067 7.016 108.691 7.28C109.315 7.52 109.819 7.856 110.203 8.288C110.587 8.744 110.863 9.344 111.031 10.088C111.199 10.808 111.283 11.768 111.283 12.968V22.652C111.283 23.66 111.451 24.344 111.787 24.704C112.147 25.064 112.747 25.244 113.587 25.244V26C113.131 25.976 112.447 25.952 111.535 25.928C110.623 25.88 109.723 25.856 108.835 25.856C107.971 25.856 107.119 25.88 106.279 25.928C105.439 25.952 104.803 25.976 104.371 26V25.244C105.019 25.244 105.463 25.064 105.703 24.704C105.967 24.344 106.099 23.66 106.099 22.652V11.456C106.099 10.856 106.039 10.34 105.919 9.908C105.823 9.452 105.619 9.104 105.307 8.864C105.019 8.6 104.563 8.468 103.939 8.468C103.003 8.468 102.187 8.888 101.491 9.728C100.795 10.544 100.435 11.552 100.411 12.752L100.231 10.556C100.879 9.116 101.731 8.144 102.787 7.64C103.867 7.136 105.019 6.884 106.243 6.884ZM135.029 0.439999L143.777 22.976C144.113 23.84 144.485 24.44 144.893 24.776C145.325 25.088 145.709 25.256 146.045 25.28V26C145.325 25.952 144.473 25.928 143.489 25.928C142.529 25.904 141.557 25.892 140.573 25.892C139.469 25.892 138.425 25.904 137.441 25.928C136.457 25.928 135.677 25.952 135.101 26V25.28C136.325 25.232 137.093 25.028 137.405 24.668C137.741 24.284 137.669 23.48 137.189 22.256L131.069 5.516L131.717 4.58L126.245 18.836C125.573 20.612 125.237 21.956 125.237 22.868C125.261 23.78 125.561 24.404 126.137 24.74C126.713 25.052 127.481 25.232 128.441 25.28V26C127.649 25.952 126.893 25.928 126.173 25.928C125.453 25.904 124.721 25.892 123.977 25.892C123.449 25.892 122.945 25.904 122.465 25.928C122.009 25.928 121.601 25.952 121.241 26V25.28C121.745 25.184 122.261 24.86 122.789 24.308C123.317 23.756 123.833 22.82 124.337 21.5L132.545 0.439999C132.929 0.463998 133.337 0.475998 133.769 0.475998C134.225 0.475998 134.645 0.463998 135.029 0.439999ZM137.549 15.632V16.352H126.821L127.181 15.632H137.549ZM154.001 32.768C152.513 32.768 151.181 32.636 150.005 32.372C148.853 32.132 147.941 31.748 147.269 31.22C146.621 30.716 146.297 30.092 146.297 29.348C146.297 28.604 146.633 27.932 147.305 27.332C147.977 26.756 148.973 26.3 150.293 25.964L150.617 26.54C150.161 26.9 149.825 27.284 149.609 27.692C149.417 28.124 149.321 28.568 149.321 29.024C149.321 30.032 149.777 30.8 150.689 31.328C151.625 31.88 152.885 32.156 154.469 32.156C155.549 32.156 156.509 32.012 157.349 31.724C158.213 31.436 158.885 31.004 159.365 30.428C159.869 29.852 160.121 29.144 160.121 28.304C160.121 27.584 159.857 26.972 159.329 26.468C158.801 25.988 157.745 25.748 156.161 25.748H153.929C152.945 25.748 152.081 25.64 151.337 25.424C150.617 25.208 150.053 24.872 149.645 24.416C149.237 23.936 149.033 23.336 149.033 22.616C149.033 21.608 149.429 20.72 150.221 19.952C151.013 19.184 152.189 18.464 153.749 17.792L154.109 18.08C153.653 18.368 153.221 18.68 152.813 19.016C152.429 19.328 152.237 19.736 152.237 20.24C152.237 21.008 152.717 21.392 153.677 21.392H157.601C159.593 21.392 161.249 21.764 162.569 22.508C163.889 23.228 164.549 24.44 164.549 26.144C164.549 27.32 164.165 28.412 163.397 29.42C162.653 30.428 161.501 31.232 159.941 31.832C158.381 32.456 156.401 32.768 154.001 32.768ZM154.361 18.332C152.321 18.332 150.617 17.876 149.249 16.964C147.881 16.028 147.197 14.576 147.197 12.608C147.197 10.616 147.881 9.164 149.249 8.252C150.617 7.34 152.321 6.884 154.361 6.884C156.425 6.884 158.129 7.34 159.473 8.252C160.841 9.164 161.525 10.616 161.525 12.608C161.525 14.576 160.841 16.028 159.473 16.964C158.129 17.876 156.425 18.332 154.361 18.332ZM154.361 17.684C155.009 17.684 155.513 17.324 155.873 16.604C156.233 15.86 156.413 14.528 156.413 12.608C156.413 10.688 156.233 9.368 155.873 8.648C155.513 7.904 155.009 7.532 154.361 7.532C153.737 7.532 153.233 7.904 152.849 8.648C152.489 9.368 152.309 10.688 152.309 12.608C152.309 14.528 152.489 15.86 152.849 16.604C153.233 17.324 153.737 17.684 154.361 17.684ZM159.977 9.98L159.257 9.728C159.617 8.792 160.193 8.012 160.985 7.388C161.801 6.764 162.677 6.452 163.613 6.452C164.381 6.452 164.957 6.668 165.341 7.1C165.749 7.508 165.953 8.048 165.953 8.72C165.953 9.44 165.761 9.98 165.377 10.34C164.993 10.676 164.561 10.844 164.081 10.844C163.673 10.844 163.289 10.7 162.929 10.412C162.593 10.124 162.401 9.692 162.353 9.116C162.305 8.516 162.509 7.748 162.965 6.812L163.217 7.028C162.305 7.364 161.621 7.76 161.165 8.216C160.709 8.648 160.313 9.236 159.977 9.98ZM176.001 6.884C178.113 6.884 179.769 7.508 180.969 8.756C182.169 10.004 182.769 12.044 182.769 14.876H170.925L170.853 14.192H178.233C178.257 13.016 178.185 11.936 178.017 10.952C177.849 9.944 177.585 9.14 177.225 8.54C176.865 7.94 176.385 7.64 175.785 7.64C174.945 7.64 174.225 8.168 173.625 9.224C173.049 10.28 172.701 12.032 172.581 14.48L172.689 14.696C172.665 14.984 172.641 15.284 172.617 15.596C172.617 15.908 172.617 16.232 172.617 16.568C172.617 18.224 172.845 19.568 173.301 20.6C173.781 21.632 174.381 22.388 175.101 22.868C175.821 23.324 176.553 23.552 177.297 23.552C178.017 23.552 178.797 23.372 179.637 23.012C180.501 22.652 181.305 21.872 182.049 20.672L182.697 20.888C182.409 21.8 181.953 22.688 181.329 23.552C180.705 24.416 179.913 25.124 178.953 25.676C177.993 26.228 176.841 26.504 175.497 26.504C173.865 26.504 172.425 26.156 171.177 25.46C169.929 24.764 168.945 23.708 168.225 22.292C167.529 20.876 167.181 19.076 167.181 16.892C167.181 14.66 167.553 12.8 168.297 11.312C169.065 9.824 170.109 8.72 171.429 8C172.773 7.256 174.297 6.884 176.001 6.884ZM198.394 6.884C199.402 6.884 200.218 7.016 200.842 7.28C201.49 7.52 201.994 7.856 202.354 8.288C202.738 8.744 203.014 9.332 203.182 10.052C203.374 10.772 203.47 11.744 203.47 12.968V22.652C203.47 23.66 203.638 24.344 203.974 24.704C204.334 25.064 204.934 25.244 205.774 25.244V26C205.318 25.976 204.634 25.952 203.722 25.928C202.81 25.88 201.91 25.856 201.022 25.856C200.11 25.856 199.21 25.88 198.322 25.928C197.458 25.952 196.798 25.976 196.342 26V25.244C197.062 25.244 197.566 25.064 197.854 24.704C198.142 24.344 198.286 23.66 198.286 22.652V11.456C198.286 10.856 198.226 10.34 198.106 9.908C197.986 9.452 197.77 9.104 197.458 8.864C197.146 8.6 196.678 8.468 196.054 8.468C195.046 8.468 194.194 8.864 193.498 9.656C192.826 10.448 192.49 11.444 192.49 12.644V22.652C192.49 23.66 192.634 24.344 192.922 24.704C193.234 25.064 193.738 25.244 194.434 25.244V26C194.002 25.976 193.366 25.952 192.526 25.928C191.71 25.88 190.858 25.856 189.97 25.856C189.058 25.856 188.122 25.88 187.162 25.928C186.202 25.952 185.482 25.976 185.002 26V25.244C185.842 25.244 186.43 25.064 186.766 24.704C187.126 24.344 187.306 23.66 187.306 22.652V11.312C187.306 10.232 187.138 9.44 186.802 8.936C186.49 8.408 185.89 8.144 185.002 8.144V7.388C185.77 7.46 186.514 7.496 187.234 7.496C188.242 7.496 189.178 7.46 190.042 7.388C190.93 7.292 191.746 7.16 192.49 6.992V10.232C193.09 9.008 193.906 8.144 194.938 7.64C195.97 7.136 197.122 6.884 198.394 6.884ZM216.836 6.884C217.772 6.884 218.624 6.992 219.392 7.208C220.184 7.4 220.832 7.652 221.336 7.964C221.96 8.348 222.44 8.828 222.776 9.404C223.136 9.956 223.316 10.604 223.316 11.348C223.316 12.188 223.052 12.884 222.524 13.436C221.996 13.964 221.312 14.228 220.472 14.228C219.632 14.228 218.96 13.988 218.456 13.508C217.952 13.028 217.7 12.38 217.7 11.564C217.7 10.796 217.94 10.16 218.42 9.656C218.9 9.128 219.452 8.78 220.076 8.612C219.884 8.372 219.596 8.168 219.212 8C218.828 7.832 218.396 7.748 217.916 7.748C217.172 7.748 216.512 7.964 215.936 8.396C215.384 8.828 214.916 9.428 214.532 10.196C214.148 10.964 213.848 11.864 213.632 12.896C213.44 13.928 213.344 15.056 213.344 16.28C213.344 18.128 213.572 19.58 214.028 20.636C214.508 21.692 215.108 22.436 215.828 22.868C216.572 23.3 217.34 23.516 218.132 23.516C218.804 23.516 219.572 23.336 220.436 22.976C221.3 22.592 222.104 21.8 222.848 20.6L223.46 20.816C223.196 21.704 222.764 22.592 222.164 23.48C221.564 24.368 220.784 25.1 219.824 25.676C218.864 26.228 217.688 26.504 216.296 26.504C214.736 26.504 213.32 26.168 212.048 25.496C210.8 24.8 209.792 23.744 209.024 22.328C208.28 20.888 207.908 19.04 207.908 16.784C207.908 14.624 208.292 12.812 209.06 11.348C209.852 9.86 210.92 8.744 212.264 8C213.608 7.256 215.132 6.884 216.836 6.884ZM243.158 7.388V8.108C242.702 8.228 242.27 8.516 241.862 8.972C241.454 9.404 241.058 10.148 240.674 11.204L235.598 25.46L234.266 27.98L226.418 10.16C226.01 9.224 225.602 8.66 225.194 8.468C224.81 8.252 224.474 8.144 224.186 8.144V7.388C224.978 7.46 225.794 7.52 226.634 7.568C227.498 7.592 228.326 7.604 229.118 7.604C230.102 7.604 231.002 7.58 231.818 7.532C232.634 7.484 233.402 7.436 234.122 7.388V8.144C233.642 8.144 233.186 8.18 232.754 8.252C232.346 8.3 232.058 8.468 231.89 8.756C231.746 9.02 231.818 9.488 232.106 10.16L236.642 21.104L236.318 21.32L238.982 13.868C239.654 11.924 239.762 10.508 239.306 9.62C238.85 8.708 238.046 8.204 236.894 8.108V7.388C237.446 7.412 238.046 7.436 238.694 7.46C239.342 7.484 239.906 7.496 240.386 7.496C240.866 7.496 241.37 7.484 241.898 7.46C242.426 7.436 242.846 7.412 243.158 7.388ZM235.598 25.46L234.23 29.312C233.774 30.536 233.246 31.388 232.646 31.868C232.31 32.156 231.878 32.372 231.35 32.516C230.822 32.684 230.21 32.768 229.514 32.768C228.938 32.768 228.338 32.672 227.714 32.48C227.114 32.288 226.61 31.976 226.202 31.544C225.794 31.112 225.59 30.56 225.59 29.888C225.59 29.144 225.854 28.544 226.382 28.088C226.91 27.656 227.606 27.44 228.47 27.44C229.262 27.44 229.91 27.632 230.414 28.016C230.918 28.4 231.17 28.964 231.17 29.708C231.17 30.188 231.014 30.644 230.702 31.076C230.414 31.508 229.97 31.832 229.37 32.048C229.49 32.072 229.634 32.084 229.802 32.084C229.97 32.084 230.102 32.084 230.198 32.084C230.918 32.084 231.554 31.856 232.106 31.4C232.658 30.944 233.114 30.224 233.474 29.24L234.734 25.532L235.598 25.46Z" fill="white"/>
</svg>
